<svg width="159" height="29" viewBox="0 0 159 29" fill="none" xmlns="http://www.w3.org/2000/svg">
<path d="M8.88 28.48L3.06591e-06 0.480001H5.68L13.28 25.12H13.44L20.88 0.480001H26.56L17.72 28.48H8.88ZM28.9931 28.48V8.64H34.3931V28.48H28.9931ZM31.7131 6.12C30.7265 6.12 29.9131 5.84 29.2731 5.28C28.6598 4.69333 28.3531 3.96 28.3531 3.08C28.3531 2.2 28.6598 1.46667 29.2731 0.880001C29.9131 0.293336 30.7265 2.86102e-06 31.7131 2.86102e-06C32.6998 2.86102e-06 33.4998 0.293336 34.1131 0.880001C34.7265 1.46667 35.0331 2.2 35.0331 3.08C35.0331 3.93333 34.7265 4.65334 34.1131 5.24C33.4998 5.82667 32.6998 6.12 31.7131 6.12ZM47.2759 28.48C45.8626 28.48 44.6226 28.2667 43.5559 27.84C42.5159 27.3867 41.7026 26.6533 41.1159 25.64C40.5293 24.6 40.2359 23.1867 40.2359 21.4V12.96H36.8359V8.64H40.2359L40.8359 3.24H45.6359V8.64H50.9159V12.96H45.6359V21.48C45.6359 22.44 45.8359 23.1067 46.2359 23.48C46.6359 23.8267 47.3159 24 48.2759 24H50.7959V28.48H47.2759ZM59.2081 28.96C57.6348 28.96 56.3281 28.6933 55.2881 28.16C54.2748 27.6267 53.5281 26.9067 53.0481 26C52.5681 25.0933 52.3281 24.0933 52.3281 23C52.3281 21.7733 52.6348 20.6933 53.2481 19.76C53.8881 18.8267 54.8481 18.1067 56.1281 17.6C57.4081 17.0667 59.0215 16.8 60.9681 16.8H65.9681C65.9681 15.8133 65.8215 15 65.5281 14.36C65.2615 13.72 64.8348 13.24 64.2481 12.92C63.6881 12.6 62.9681 12.44 62.0881 12.44C61.0481 12.44 60.1548 12.68 59.4081 13.16C58.6881 13.6133 58.2348 14.3333 58.0481 15.32H52.8081C52.9681 13.8533 53.4481 12.5867 54.2481 11.52C55.0748 10.4533 56.1548 9.62667 57.4881 9.04C58.8481 8.45334 60.3815 8.16 62.0881 8.16C64.0081 8.16 65.6615 8.48 67.0481 9.12C68.4348 9.73334 69.5015 10.6533 70.2481 11.88C70.9948 13.08 71.3681 14.5467 71.3681 16.28V28.48H66.8881L66.3281 25.4H66.1681C65.7415 25.9867 65.2748 26.5067 64.7681 26.96C64.2881 27.4133 63.7548 27.7867 63.1681 28.08C62.5815 28.3733 61.9548 28.5867 61.2881 28.72C60.6215 28.88 59.9281 28.96 59.2081 28.96ZM60.9681 24.8C61.7148 24.8 62.3548 24.68 62.8881 24.44C63.4481 24.1733 63.9281 23.8267 64.3281 23.4C64.7281 22.9733 65.0348 22.48 65.2481 21.92C65.4881 21.3333 65.6481 20.7333 65.7281 20.12H61.5681C60.7415 20.12 60.0615 20.2267 59.5281 20.44C59.0215 20.6267 58.6481 20.9067 58.4081 21.28C58.1681 21.6267 58.0481 22.04 58.0481 22.52C58.0481 23 58.1681 23.4133 58.4081 23.76C58.6481 24.1067 58.9948 24.3733 59.4481 24.56C59.9015 24.72 60.4081 24.8 60.9681 24.8ZM87.7688 28.96C84.9688 28.96 82.5421 28.36 80.4888 27.16C78.4621 25.9333 76.9021 24.24 75.8088 22.08C74.7154 19.8933 74.1688 17.3733 74.1688 14.52C74.1688 11.6667 74.7154 9.14667 75.8088 6.96C76.9288 4.77334 78.5021 3.06667 80.5288 1.84C82.5554 0.613336 84.9688 2.86102e-06 87.7688 2.86102e-06C91.1821 2.86102e-06 93.9688 0.840002 96.1288 2.52C98.2888 4.2 99.6488 6.57334 100.209 9.64H94.2488C93.9021 8.14667 93.1821 6.98667 92.0888 6.16C90.9954 5.30667 89.5421 4.88 87.7288 4.88C86.0488 4.88 84.5954 5.28 83.3688 6.08C82.1688 6.85334 81.2488 7.96 80.6088 9.4C79.9954 10.84 79.6888 12.5467 79.6888 14.52C79.6888 16.4933 79.9954 18.2 80.6088 19.64C81.2488 21.0533 82.1688 22.1467 83.3688 22.92C84.5954 23.6933 86.0488 24.08 87.7288 24.08C89.5421 24.08 90.9954 23.6933 92.0888 22.92C93.2088 22.1467 93.9421 21.0533 94.2888 19.64H100.209C99.6754 22.5467 98.3154 24.8267 96.1288 26.48C93.9688 28.1333 91.1821 28.96 87.7688 28.96ZM109.677 28.96C108.104 28.96 106.797 28.6933 105.757 28.16C104.744 27.6267 103.997 26.9067 103.517 26C103.037 25.0933 102.797 24.0933 102.797 23C102.797 21.7733 103.104 20.6933 103.717 19.76C104.357 18.8267 105.317 18.1067 106.597 17.6C107.877 17.0667 109.49 16.8 111.437 16.8H116.437C116.437 15.8133 116.29 15 115.997 14.36C115.73 13.72 115.304 13.24 114.717 12.92C114.157 12.6 113.437 12.44 112.557 12.44C111.517 12.44 110.624 12.68 109.877 13.16C109.157 13.6133 108.704 14.3333 108.517 15.32H103.277C103.437 13.8533 103.917 12.5867 104.717 11.52C105.544 10.4533 106.624 9.62667 107.957 9.04C109.317 8.45334 110.85 8.16 112.557 8.16C114.477 8.16 116.13 8.48 117.517 9.12C118.904 9.73334 119.97 10.6533 120.717 11.88C121.464 13.08 121.837 14.5467 121.837 16.28V28.48H117.357L116.797 25.4H116.637C116.21 25.9867 115.744 26.5067 115.237 26.96C114.757 27.4133 114.224 27.7867 113.637 28.08C113.05 28.3733 112.424 28.5867 111.757 28.72C111.09 28.88 110.397 28.96 109.677 28.96ZM111.437 24.8C112.184 24.8 112.824 24.68 113.357 24.44C113.917 24.1733 114.397 23.8267 114.797 23.4C115.197 22.9733 115.504 22.48 115.717 21.92C115.957 21.3333 116.117 20.7333 116.197 20.12H112.037C111.21 20.12 110.53 20.2267 109.997 20.44C109.49 20.6267 109.117 20.9067 108.877 21.28C108.637 21.6267 108.517 22.04 108.517 22.52C108.517 23 108.637 23.4133 108.877 23.76C109.117 24.1067 109.464 24.3733 109.917 24.56C110.37 24.72 110.877 24.8 111.437 24.8ZM124.838 28.48V8.64H129.438L129.918 13H130.078C130.664 11.5867 131.304 10.5467 131.998 9.88C132.691 9.18667 133.478 8.73334 134.358 8.52C135.264 8.28 136.278 8.16 137.398 8.16V13.88H135.918C135.011 13.88 134.198 13.9867 133.478 14.2C132.784 14.3867 132.198 14.7067 131.718 15.16C131.238 15.5867 130.864 16.16 130.598 16.88C130.358 17.6 130.238 18.4667 130.238 19.48V28.48H124.838ZM148.66 28.96C146.633 28.96 144.833 28.5333 143.26 27.68C141.713 26.8267 140.5 25.6267 139.62 24.08C138.74 22.5333 138.3 20.76 138.3 18.76C138.3 16.68 138.727 14.8533 139.58 13.28C140.46 11.68 141.673 10.4267 143.22 9.52C144.793 8.61334 146.607 8.16 148.66 8.16C150.66 8.16 152.407 8.58667 153.9 9.44C155.393 10.2933 156.567 11.4667 157.42 12.96C158.273 14.4267 158.7 16.0933 158.7 17.96C158.7 18.2267 158.687 18.5333 158.66 18.88C158.66 19.2 158.647 19.5333 158.62 19.88H142.14V16.56H153.22C153.14 15.3067 152.673 14.3067 151.82 13.56C150.993 12.8133 149.953 12.44 148.7 12.44C147.767 12.44 146.913 12.6533 146.14 13.08C145.367 13.48 144.753 14.1067 144.3 14.96C143.847 15.7867 143.62 16.84 143.62 18.12V19.28C143.62 20.3733 143.833 21.32 144.26 22.12C144.687 22.8933 145.273 23.4933 146.02 23.92C146.793 24.3467 147.66 24.56 148.62 24.56C149.607 24.56 150.433 24.3467 151.1 23.92C151.767 23.4667 152.273 22.8933 152.62 22.2H158.1C157.727 23.4533 157.1 24.6 156.22 25.64C155.34 26.6533 154.26 27.4667 152.98 28.08C151.7 28.6667 150.26 28.96 148.66 28.96Z" fill="#333333"/>
</svg>
